<?xml version="1.0" encoding="UTF-8"?>
<svg width="24px" height="24px" viewBox="0 0 24 24" version="1.1" xmlns="http://www.w3.org/2000/svg" xmlns:xlink="http://www.w3.org/1999/xlink">
    <title>_Element / Nav / Default/ SmartBio</title>
    <defs>
        <filter id="filter-1">
            <feColorMatrix in="SourceGraphic" type="matrix" values="0 0 0 0 1.000000 0 0 0 0 1.000000 0 0 0 0 1.000000 0 0 0 1.000000 0"></feColorMatrix>
        </filter>
        <path d="M3.41950607,11.3386667 C3.71817274,9.77066667 5.19017274,8.69333333 6.79017274,8.69333333 L9.91550607,8.69333333 C10.4701727,8.69333333 10.9288394,8.23466667 10.9288394,7.68 C10.9288394,7.12533333 10.4701727,6.66666667 9.91550607,6.66666667 L6.8968394,6.66666667 C4.1128394,6.66666667 1.62750607,8.704 1.3608394,11.4773333 C1.05150607,14.656 3.54750607,17.3333333 6.66217274,17.3333333 L9.91550607,17.3333333 C10.4701727,17.3333333 10.9288394,16.8746667 10.9288394,16.32 C10.9288394,15.7653333 10.4701727,15.3066667 9.91550607,15.3066667 L6.66217274,15.3066667 C4.6248394,15.3066667 3.01417274,13.4506667 3.41950607,11.3386667 Z M8.79550607,13.0666667 L15.1955061,13.0666667 C15.7821727,13.0666667 16.2621727,12.5866667 16.2621727,12 C16.2621727,11.4133333 15.7821727,10.9333333 15.1955061,10.9333333 L8.79550607,10.9333333 C8.2088394,10.9333333 7.7288394,11.4133333 7.7288394,12 C7.7288394,12.5866667 8.2088394,13.0666667 8.79550607,13.0666667 Z M17.0941727,6.66666667 L14.0755061,6.66666667 C13.5208394,6.66666667 13.0621727,7.12533333 13.0621727,7.68 C13.0621727,8.23466667 13.5208394,8.69333333 14.0755061,8.69333333 L17.2008394,8.69333333 C18.8008394,8.69333333 20.2728394,9.77066667 20.5715061,11.3386667 C20.9768394,13.4506667 19.3661727,15.3066667 17.3288394,15.3066667 L14.0755061,15.3066667 C13.5208394,15.3066667 13.0621727,15.7653333 13.0621727,16.32 C13.0621727,16.8746667 13.5208394,17.3333333 14.0755061,17.3333333 L17.3288394,17.3333333 C20.4435061,17.3333333 22.9395061,14.656 22.6408394,11.4773333 C22.3741727,8.704 19.8781727,6.66666667 17.0941727,6.66666667 Z" id="path-2"></path>
    </defs>
    <g id="Smart.bio-Footer" stroke="none" stroke-width="1" fill="none" fill-rule="evenodd">
        <g id="_Element-/-Nav-/-Default/-SmartBio" transform="translate(-1244.000000, -934.000000)" filter="url(#filter-1)">
            <g transform="translate(1244.000000, 934.000000)" id="icon/social/group_24px">
                <mask id="mask-3" fill="white">
                    <use xlink:href="#path-2"></use>
                </mask>
                <g id="icon/editor/insert_link_24px" fill-rule="nonzero" transform="translate(12.000000, 12.000000) rotate(-45.000000) translate(-12.000000, -12.000000) "></g>
                <g id="↳-Color" mask="url(#mask-3)" fill="#FFFFFF">
                    <g transform="translate(-0.800000, -0.800000)" id="Rectangle">
                        <rect x="0" y="0" width="25.6" height="25.6"></rect>
                    </g>
                </g>
            </g>
        </g>
    </g>
</svg>